<mxfile host="app.diagrams.net" modified="2024-02-22T10:51:14.648Z" agent="Mozilla/5.0 (Windows NT 10.0; Win64; x64) AppleWebKit/537.36 (KHTML, like Gecko) Chrome/121.0.0.0 Safari/537.36" version="22.0.0" etag="xqa-Ty85ZWf5Ye8GTjp-" type="github">
  <diagram name="Trang-1" id="VnRmB-FATasHTiE0RMeS">
    <mxGraphModel>
      <root>
        <mxCell id="0" />
        <mxCell id="1" parent="0" />
      </root>
    </mxGraphModel>
  </diagram>
</mxfile>
